<svg width="229" height="55" viewBox="0 0 229 55" fill="none" xmlns="http://www.w3.org/2000/svg">
<path d="M210.148 54.3256V46.4106H229V54.3256H210.148ZM210.508 32.5953V24.6083H224.683V32.5953H210.508ZM202.88 2.87807H213.026V54.3256H202.88V2.87807ZM210.867 2.87807H228.28V10.7931H210.867V2.87807Z" fill="white"/>
<path d="M172.294 54.3256L183.519 2.87807H191.218L179.993 54.3256H172.294ZM172.006 54.3256L160.781 2.87807H168.48L179.705 54.3256H172.006ZM155.025 54.3256V2.87807H165.17V54.3256H155.025ZM186.829 54.3256V2.87807H196.974V54.3256H186.829Z" fill="white"/>
<path d="M101.337 10.7931V2.87807H134.796V10.7931H101.337ZM112.994 54.3256V2.87807H123.14V54.3256H112.994Z" fill="white"/>
<path d="M90.4324 54.3256L68.1984 2.87807H78.5599L100.794 54.3256H90.4324ZM67.6228 54.3256L79.8551 28.5658H89.1372L76.9049 54.3256H67.6228ZM79.8551 28.5658L92.0154 2.87807H101.298L89.1372 28.5658H79.8551Z" fill="white"/>
<path d="M47.8847 54.3256V46.4106H66.7367V54.3256H47.8847ZM48.2444 32.5953V24.6083H62.4195V32.5953H48.2444ZM40.6172 2.87807H50.7628V54.3256H40.6172V2.87807ZM48.6042 2.87807H66.0172V10.7931H48.6042V2.87807Z" fill="white"/>
<path d="M22.162 54.3256L1.72691 2.87807H10.5773L31.0124 54.3256H22.162ZM0 54.3256V2.87807H10.1456V54.3256H0ZM24.6084 54.3256V2.87807H34.754V54.3256H24.6084Z" fill="white"/>
<path d="M148.506 0.724443C148.619 2.89776 148.675 4.70886 148.675 6.15774C148.675 7.00292 148.657 7.87829 148.619 8.78384C148.619 9.62902 148.582 13.4021 148.506 14.4888C147.717 14.7303 146.947 14.9114 146.196 15.0321C145.445 15.1529 144.693 15.2132 143.942 15.2132C143.228 15.2132 142.496 15.1529 141.744 15.0321C141.031 14.9114 140.298 14.7303 139.547 14.4888C139.472 13.4625 139.415 9.71958 139.378 8.8744C139.34 7.96884 139.321 7.09348 139.321 6.2483C139.321 5.46349 139.34 4.61831 139.378 3.71276C139.415 2.80721 139.472 1.8111 139.547 0.724443C140.298 0.422593 141.049 0.241483 141.801 0.181114C142.59 0.0603721 143.36 0 144.111 0C144.825 0 145.539 0.0603721 146.252 0.181114C147.004 0.241483 147.755 0.422593 148.506 0.724443ZM148.506 54.6854H139.49V17.2691H148.506V54.6854Z" fill="black"/>
</svg>
